# xmcd
#
# Track frame offsets: 
#        150
#        8675
#        16782
#        25452
#        48872
#        72395
#        86730
#        104350
#        116915
#        138047
#        147450
#        160047
#        181005
#        194185
#        214502
#        228135
#
# Disc length: 3177 seconds
#
# Revision: 0
# Processed by: cddbd v1.5.2PL0 Copyright (c) Steve Scherf et al.
# Submitted via: ExactAudioCopy v0.99pb4
#
DISCID=d30c6710
DTITLE=Pete Seeger - Pete Seeger's Greatest Hits
DYEAR=2001
DGENRE=Folk
TTITLE0=Little Boxes
TTITLE1=Wimoweh (Mbube)
TTITLE2=Where Have All The Flowers Gone?
TTITLE3=Abiyoyo
TTITLE4=The Bells Of Rhymney
TTITLE5=Turn! Turn! Turn! (To Everything There Is A Reason)
TTITLE6=Talking Union
TTITLE7=Which Side Are You On
TTITLE8=We Shall Overcome
TTITLE9=Living In The Country
TTITLE10=Darling Corey
TTITLE11=Guantanamera
TTITLE12=Waist Deep In The Big Muddy
TTITLE13=Barbara Allen
TTITLE14=This Land Is Your Land [Live]
TTITLE15=Michael Row The Boat Ashore
EXTD=
EXTT0=
EXTT1=
EXTT2=
EXTT3=
EXTT4=
EXTT5=
EXTT6=
EXTT7=
EXTT8=
EXTT9=
EXTT10=
EXTT11=
EXTT12=
EXTT13=
EXTT14=
EXTT15=
PLAYORDER=
